<svg width="92" height="110" viewBox="0 0 92 110" xmlns="http://www.w3.org/2000/svg">
<path fill="#383131" d="M79.8537 36.3502L77.8396 37.8312L79.8537 36.3502ZM13.1387 36.3605L15.1533 37.8409L13.1387 36.3605ZM45.4018 5L43.1837 3.8467C43.1631 3.88619 43.1437 3.92622 43.1253 3.96674L45.4018 5ZM47.5971 5L49.8741 3.96802C49.8558 3.92748 49.8363 3.88745 49.8158 3.84795L47.5971 5ZM36.039 20.7773L35.4048 18.3591L36.039 20.7773ZM39.4408 18.1331L41.6589 19.2864C41.6795 19.247 41.6989 19.2069 41.7173 19.1664L39.4408 18.1331ZM56.9513 20.7748L56.3177 23.1932L56.9513 20.7748ZM53.5466 18.1276L51.2696 19.1596C51.2879 19.2002 51.3074 19.2402 51.3279 19.2797L53.5466 18.1276ZM38.3889 70.4166H40.8889C40.8889 69.0359 39.7696 67.9166 38.3889 67.9166V70.4166ZM22.2845 70.4166H19.7845C19.7845 71.7973 20.9037 72.9166 22.2845 72.9166V70.4166ZM22.2845 53.8894V51.3894C20.9037 51.3894 19.7845 52.5086 19.7845 53.8894H22.2845ZM54.4933 86.3203V88.8203C55.8741 88.8203 56.9933 87.701 56.9933 86.3203H54.4933ZM54.4933 70.1048V67.6048C53.1126 67.6048 51.9933 68.7241 51.9933 70.1048H54.4933ZM38.3889 86.3203H35.8889C35.8889 87.701 37.0082 88.8203 38.3889 88.8203V86.3203ZM54.4933 53.8894H51.9933C51.9933 55.2701 53.1126 56.3894 54.4933 56.3894V53.8894ZM54.4933 37.6739H56.9933C56.9933 36.2932 55.8741 35.1739 54.4933 35.1739V37.6739ZM70.5978 70.1048V72.6048C71.9785 72.6048 73.0978 71.4855 73.0978 70.1048H70.5978ZM70.5978 53.8894H73.0978C73.0978 52.5086 71.9785 51.3894 70.5978 51.3894V53.8894ZM38.6986 53.8894V56.3894C40.0793 56.3894 41.1986 55.2701 41.1986 53.8894H38.6986ZM38.6986 37.6739V35.1739C37.3179 35.1739 36.1986 36.2932 36.1986 37.6739H38.6986ZM56.9513 20.7748L56.3177 23.1932C64.9166 25.446 72.5218 30.5989 77.8396 37.8312L79.8537 36.3502L81.8678 34.8692C75.8729 26.716 67.2939 20.9 57.5849 18.3564L56.9513 20.7748ZM79.8537 36.3502L77.8396 37.8312C83.6005 45.6661 86.2643 55.3805 85.31 65.0862L87.798 65.3308L90.286 65.5754C91.3607 54.645 88.3616 43.7008 81.8678 34.8692L79.8537 36.3502ZM87.798 65.3308L85.31 65.0862C84.3557 74.7917 79.8521 83.7899 72.6793 90.3334L74.3642 92.1803L76.0491 94.0272C84.1387 86.6474 89.2113 76.506 90.286 65.5754L87.798 65.3308ZM74.3642 92.1803L72.6793 90.3334C65.507 96.8765 56.1781 100.498 46.506 100.5L46.5064 103L46.5068 105.5C57.4297 105.498 67.9591 101.408 76.0491 94.0272L74.3642 92.1803ZM46.5064 103L46.506 100.5C36.8339 100.501 27.5039 96.8824 20.3296 90.3415L18.6452 92.1889L16.9609 94.0364C25.0532 101.414 35.5838 105.502 46.5068 105.5L46.5064 103ZM18.6452 92.1889L20.3296 90.3415C13.1548 83.8002 8.64844 74.8035 7.69118 65.0982L5.20325 65.3436L2.71532 65.589C3.7934 76.5192 8.86908 86.659 16.9609 94.0364L18.6452 92.1889ZM5.20325 65.3436L7.69118 65.0982C6.7339 55.3928 9.39481 45.6775 15.1533 37.8409L13.1387 36.3605L11.1241 34.8802C4.63311 43.7137 1.63725 54.6589 2.71532 65.589L5.20325 65.3436ZM13.1387 36.3605L15.1533 37.8409C20.4694 30.6063 28.0739 25.4507 36.6731 23.1956L36.039 20.7773L35.4048 18.3591C25.6954 20.9054 17.1172 26.7243 11.1241 34.8802L13.1387 36.3605ZM39.4408 18.1331L41.7173 19.1664L47.6782 6.03326L45.4018 5L43.1253 3.96674L37.1644 17.0999L39.4408 18.1331ZM47.5971 5L45.32 6.03199L51.2696 19.1596L53.5466 18.1276L55.8237 17.0956L49.8741 3.96802L47.5971 5ZM45.4018 5L47.6198 6.1533C47.1509 7.05517 45.8491 7.05874 45.3783 6.15206L47.5971 5L49.8158 3.84795C48.4184 1.15669 44.5802 1.16079 43.1837 3.8467L45.4018 5ZM36.039 20.7773L36.6731 23.1956C38.7322 22.6556 40.6068 21.31 41.6589 19.2864L39.4408 18.1331L37.2228 16.9798C36.8872 17.6252 36.241 18.1398 35.4048 18.3591L36.039 20.7773ZM56.9513 20.7748L57.5849 18.3564C56.7477 18.1371 56.1009 17.6218 55.7653 16.9756L53.5466 18.1276L51.3279 19.2797C52.3799 21.3059 54.2564 22.6531 56.3177 23.1932L56.9513 20.7748ZM38.3889 70.4166V67.9166H22.2845V70.4166V72.9166H38.3889V70.4166ZM22.2845 70.4166H24.7845V53.8894H22.2845H19.7845V70.4166H22.2845ZM54.4933 86.3203H56.9933V70.1048H54.4933H51.9933V86.3203H54.4933ZM38.3889 86.3203H40.8889V70.4166H38.3889H35.8889V86.3203H38.3889ZM54.4933 53.8894H56.9933V37.6739H54.4933H51.9933V53.8894H54.4933ZM70.5978 70.1048H73.0978V53.8894H70.5978H68.0978V70.1048H70.5978ZM22.2845 53.8894V56.3894H38.6986V53.8894V51.3894H22.2845V53.8894ZM38.6986 37.6739H36.1986V53.8894H38.6986H41.1986V37.6739H38.6986ZM38.6986 37.6739V40.1739H54.4933V37.6739V35.1739H38.6986V37.6739ZM54.4933 70.1048V72.6048H70.5978V70.1048V67.6048H54.4933V70.1048ZM54.4933 53.8894V56.3894H70.5978V53.8894V51.3894H54.4933V53.8894ZM38.3889 86.3203V88.8203H54.4933V86.3203V83.8203H38.3889V86.3203Z"/>
</svg>
